<svg width="50" height="50" viewBox="0 0 50 50" fill="none" xmlns="http://www.w3.org/2000/svg">
<path d="M24.1498 42.7063C24.0173 42.8423 23.8589 42.9505 23.6839 43.0243C23.5089 43.0982 23.131 43.1362 23.131 43.1362C23.131 43.1362 22.7531 43.0982 22.5781 43.0243C22.4032 42.9505 22.2448 42.8423 22.1123 42.7063C21.8406 42.4274 21.6886 42.0534 21.6886 41.6641C21.6886 41.2747 21.8406 40.9008 22.1123 40.6219L37.3404 25.0031L22.1123 9.38126C21.9752 9.24093 21.8671 9.07495 21.7941 8.89283C21.7212 8.71071 21.6848 8.51601 21.6872 8.31984C21.6895 8.12366 21.7304 7.92987 21.8077 7.74953C21.8849 7.56918 21.9969 7.40582 22.1373 7.26876C22.271 7.13811 22.4291 7.0351 22.6027 6.96563C22.7653 6.90055 22.9384 6.8661 23.1134 6.86393C23.1251 6.86378 23.1369 6.86378 23.1487 6.86393C23.3356 6.86625 23.5203 6.90541 23.692 6.97916C23.8638 7.05292 24.0193 7.15982 24.1498 7.29376L40.3435 23.9125C40.6279 24.2043 40.7871 24.5957 40.7871 25.0031C40.7871 25.4106 40.6279 25.802 40.3435 26.0938L24.1498 42.7063ZM11.6498 42.7063C11.5173 42.8423 11.3589 42.9505 11.1839 43.0243C11.0089 43.0982 10.631 43.1362 10.631 43.1362C10.631 43.1362 10.2531 43.0982 10.0781 43.0243C9.90315 42.9505 9.74475 42.8423 9.61226 42.7063C9.3406 42.4274 9.18858 42.0534 9.18858 41.6641C9.18858 41.2747 9.3406 40.9008 9.61226 40.6219L24.8404 25.0031L9.61226 9.38126C9.47517 9.24093 9.36707 9.07495 9.29412 8.89283C9.22118 8.71071 9.18484 8.51601 9.18716 8.31984C9.18948 8.12366 9.23042 7.92987 9.30766 7.74953C9.38489 7.56918 9.49689 7.40582 9.63726 7.26876C9.77096 7.13811 9.92912 7.0351 10.1027 6.96563C10.2762 6.89617 10.4618 6.8616 10.6487 6.86393C10.8356 6.86625 11.0203 6.90541 11.192 6.97916C11.3638 7.05292 11.5193 7.15982 11.6498 7.29376L13.6839 9.38126L27.8435 23.9125C28.1279 24.2043 28.2871 24.5957 28.2871 25.0031C28.2871 25.4106 28.1279 25.802 27.8435 26.0938L13.6816 40.6219L11.6498 42.7063Z" fill="#8B3889"/>
<path d="M22.1123 9.38126C21.9752 9.24093 21.8671 9.07495 21.7941 8.89283C21.7212 8.71071 21.6848 8.51601 21.6872 8.31984C21.6895 8.12366 21.7304 7.92987 21.8077 7.74953C21.8849 7.56918 21.9969 7.40582 22.1373 7.26876C22.271 7.13811 22.4291 7.0351 22.6027 6.96563C22.7653 6.90055 22.9384 6.8661 23.1134 6.86393L10.6487 6.86393C10.8356 6.86625 11.0203 6.90541 11.192 6.97916C11.3638 7.05292 11.5193 7.15982 11.6498 7.29376L13.6839 9.38126H22.1123Z" fill="#8B3889"/>
<path d="M23.131 43.1362C23.131 43.1362 22.7531 43.0982 22.5781 43.0243C22.4032 42.9505 22.2448 42.8423 22.1123 42.7063C21.8406 42.4274 21.6886 42.0534 21.6886 41.6641C21.6886 41.2747 21.8406 40.9008 22.1123 40.6219H13.6816L11.6498 42.7063C11.5173 42.8423 11.3589 42.9505 11.1839 43.0243C11.0089 43.0982 10.631 43.1362 10.631 43.1362L23.131 43.1362Z" fill="#8B3889"/>
</svg>
