<svg width="50" height="50" viewBox="0 0 50 50" fill="none" xmlns="http://www.w3.org/2000/svg">
<path d="M25.8502 7.29374C25.9827 7.15767 26.1411 7.04951 26.3161 6.97566C26.4911 6.90182 26.869 6.86377 26.869 6.86377C26.869 6.86377 27.2469 6.90182 27.4219 6.97566C27.5968 7.04951 27.7552 7.15767 27.8877 7.29374C28.1594 7.57264 28.3114 7.94659 28.3114 8.33593C28.3114 8.72526 28.1594 9.09921 27.8877 9.37811L12.6596 24.9969L27.8877 40.6187C28.0248 40.7591 28.1329 40.925 28.2059 41.1072C28.2788 41.2893 28.3152 41.484 28.3128 41.6802C28.3105 41.8763 28.2696 42.0701 28.1923 42.2505C28.1151 42.4308 28.0031 42.5942 27.8627 42.7312C27.729 42.8619 27.5709 42.9649 27.3973 43.0344C27.2347 43.0995 27.0616 43.1339 26.8866 43.1361C26.8749 43.1362 26.8631 43.1362 26.8513 43.1361C26.6644 43.1338 26.4797 43.0946 26.308 43.0208C26.1362 42.9471 25.9807 42.8402 25.8502 42.7062L9.65649 26.0875C9.37207 25.7957 9.21289 25.4043 9.21289 24.9969C9.21289 24.5894 9.37207 24.198 9.65649 23.9062L25.8502 7.29374ZM38.3502 7.29374C38.4827 7.15767 38.6411 7.04951 38.8161 6.97566C38.9911 6.90182 39.369 6.86377 39.369 6.86377C39.369 6.86377 39.7469 6.90182 39.9219 6.97566C40.0968 7.04951 40.2552 7.15767 40.3877 7.29374C40.6594 7.57264 40.8114 7.94659 40.8114 8.33593C40.8114 8.72526 40.6594 9.09921 40.3877 9.37811L25.1596 24.9969L40.3877 40.6187C40.5248 40.7591 40.6329 40.925 40.7059 41.1072C40.7788 41.2893 40.8152 41.484 40.8128 41.6802C40.8105 41.8763 40.7696 42.0701 40.6923 42.2505C40.6151 42.4308 40.5031 42.5942 40.3627 42.7312C40.229 42.8619 40.0709 42.9649 39.8973 43.0344C39.7238 43.1038 39.5382 43.1384 39.3513 43.1361C39.1644 43.1338 38.9797 43.0946 38.808 43.0208C38.6362 42.9471 38.4807 42.8402 38.3502 42.7062L36.3161 40.6187L22.1565 26.0875C21.8721 25.7957 21.7129 25.4043 21.7129 24.9969C21.7129 24.5894 21.8721 24.198 22.1565 23.9062L36.3184 9.37811L38.3502 7.29374Z" fill="#8B3889"/>
<path d="M27.8877 40.6187C28.0248 40.7591 28.1329 40.925 28.2059 41.1072C28.2788 41.2893 28.3152 41.484 28.3128 41.6802C28.3105 41.8763 28.2696 42.0701 28.1923 42.2505C28.1151 42.4308 28.0031 42.5942 27.8627 42.7312C27.729 42.8619 27.5709 42.9649 27.3973 43.0344C27.2347 43.0995 27.0616 43.1339 26.8866 43.1361H39.3513C39.1644 43.1338 38.9797 43.0946 38.808 43.0208C38.6362 42.9471 38.4807 42.8402 38.3502 42.7062L36.3161 40.6187H27.8877Z" fill="#8B3889"/>
<path d="M26.869 6.86377C26.869 6.86377 27.2469 6.90182 27.4219 6.97566C27.5968 7.04951 27.7552 7.15767 27.8877 7.29374C28.1594 7.57264 28.3114 7.94659 28.3114 8.33593C28.3114 8.72526 28.1594 9.09921 27.8877 9.37811H36.3184L38.3502 7.29374C38.4827 7.15767 38.6411 7.04951 38.8161 6.97566C38.9911 6.90182 39.369 6.86377 39.369 6.86377H26.869Z" fill="#8B3889"/>
</svg>
