<svg width="1440" height="1089" viewBox="0 0 1440 1089" fill="none" xmlns="http://www.w3.org/2000/svg">
<path d="M1 133.011C204.239 266.944 313.792 443.587 376.975 588.093C429.644 708.569 428.71 757.851 484.637 847.735C606.004 1042.78 838.496 1177.28 951.175 1009.67C1006.68 927.1 986.149 822.465 1012.7 624.384C1036.58 446.197 1098.34 201.127 1270.75 -65.2137" stroke="white" stroke-opacity="0.06" stroke-width="5" stroke-miterlimit="10"/>
<path d="M1.81308 219.428C193.938 315.712 301.383 471.467 364.431 597.396C418.141 704.677 427.5 746.327 490.488 833.115C618.081 1008.92 822.881 1132.54 935.545 987.068C996.409 908.475 990.271 807.576 1026.04 610.561C1056.82 441.037 1121.2 204.318 1287.68 -57.2335" stroke="white" stroke-opacity="0.06" stroke-width="5" stroke-miterlimit="10"/>
<path d="M2.62753 305.846C183.652 364.473 289.394 499.472 351.899 606.706C406.994 701.217 425.921 734.946 496.345 818.49C629.156 975.999 808.54 1089.12 919.917 964.463C986.647 889.779 993.987 793.005 1039.38 596.732C1076.55 436.008 1144.08 207.521 1304.59 -49.2292" stroke="white" stroke-opacity="0.06" stroke-width="5" stroke-miterlimit="10"/>
<path d="M3.44061 392.257C173.333 413.211 277.961 527.43 339.366 616.009C396.301 698.14 423.953 723.883 502.204 803.864C639.439 944.126 795.281 1047.18 904.292 941.863C977.372 871.256 997.245 778.553 1052.72 582.909C1095.82 430.955 1166.96 210.73 1321.51 -41.2791" stroke="white" stroke-opacity="0.06" stroke-width="5" stroke-miterlimit="10"/>
<path d="M4.25366 478.675C163.028 462.002 267.231 555.065 326.833 625.318C386.198 695.266 421.714 713.322 508.063 789.239C649.145 913.319 782.898 1006.76 888.666 919.263C968.551 853.195 1000.02 764.017 1066.07 569.079C1114.63 425.765 1189.82 213.933 1338.46 -33.3047" stroke="white" stroke-opacity="0.06" stroke-width="5" stroke-miterlimit="10"/>
<path d="M5.06818 565.092C152.746 510.769 257.279 581.981 314.305 634.621C376.741 692.261 419.252 703.27 513.924 774.613C658.443 883.523 771.129 967.815 873.042 896.664C960.098 835.881 1002.32 749.176 1079.42 555.25C1133.06 420.317 1212.7 217.141 1355.37 -25.3186" stroke="white" stroke-opacity="0.06" stroke-width="5" stroke-miterlimit="10"/>
<path d="M5.88116 651.51C142.423 559.531 248.059 607.759 301.772 643.931C367.997 688.525 416.631 693.901 519.783 759.994C667.53 854.661 759.783 930.255 857.419 874.058C951.963 819.639 1004.17 733.856 1092.76 541.427C1151.18 414.54 1235.57 220.344 1372.3 -17.3502" stroke="white" stroke-opacity="0.06" stroke-width="5" stroke-miterlimit="10"/>
<path d="M6.69427 737.921C132.122 608.292 239.359 632.059 289.225 653.234C359.817 683.203 413.905 685.209 525.627 745.369C676.512 826.614 748.621 893.946 841.779 851.458C944.073 804.804 1005.6 717.89 1106.09 527.58C1169.06 408.349 1258.44 223.529 1389.21 -9.39395" stroke="white" stroke-opacity="0.06" stroke-width="5" stroke-miterlimit="10"/>
<path d="M7.52594 824.339C121.835 657.059 231.315 676.396 276.725 662.543C351 639.878 411.189 677.205 531.519 730.743C685.537 799.285 737.488 858.756 826.168 828.859C936.319 791.742 1006.74 701.169 1119.45 513.775C1186.81 401.788 1281.32 226.756 1406.15 -1.3718" stroke="white" stroke-opacity="0.06" stroke-width="5" stroke-miterlimit="10"/>
<path d="M8.32178 910.756C111.517 705.821 223.085 689.716 264.175 671.846C340.876 638.495 408.43 669.865 537.361 716.148C694.644 772.578 726.118 824.542 810.544 806.289C928.514 780.78 1007.61 683.658 1132.8 499.975C1204.47 394.819 1304.2 229.977 1423.07 6.60831" stroke="white" stroke-opacity="0.06" stroke-width="5" stroke-miterlimit="10"/>
<path d="M9.13486 997.168C101.212 754.588 211.78 696.523 251.642 681.156C333.598 649.564 405.748 663.148 543.217 701.51C703.9 746.332 714.347 791.059 794.918 783.671C920.466 772.165 1008.31 665.255 1146.15 486.134C1222.13 387.396 1327.08 233.18 1440 14.5706" stroke="white" stroke-opacity="0.06" stroke-width="5" stroke-miterlimit="10"/>
</svg>
